<svg height="512pt" viewBox="0 -73 512 512" width="512pt" xmlns="http://www.w3.org/2000/svg"><path d="m437.75 150.277344v205.941406h-427.722656v-276.953125h349.820312" fill="#ffe6c0"/><path d="m383.8125 130.300781-153.035156 144.792969c-3.867188 3.65625-9.914063 3.65625-13.78125 0l-206.96875-195.828125h350.324218" fill="#ffb48e"/><path d="m501.972656 79.265625c0 38.238281-30.996094 69.238281-69.234375 69.238281-38.242187 0-69.238281-31-69.238281-69.238281s30.996094-69.238281 69.238281-69.238281c38.238281 0 69.234375 31 69.234375 69.238281zm0 0" fill="#ff6977"/><path d="m512 79.265625c0-43.707031-35.558594-79.265625-79.265625-79.265625-40.308594 0-73.660156 30.25-78.605469 69.238281h-344.101562c-5.453125 0-10.027344 4.582031-10.027344 10.027344v276.953125c0 5.460938 4.570312 10.023438 10.027344 10.023438h53.566406c12.871094 0 12.890625-20.050782 0-20.050782h-29.707031l117.222656-119.636718 59 55.820312c7.628906 7.222656 19.929687 7.21875 27.5625 0l58.996094-55.820312 117.222656 119.636718h-268.589844c-12.871093 0-12.890625 20.050782 0 20.050782h292.449219c5.457031 0 10.023438-4.5625 10.023438-10.023438v-199.140625c36.539062-7.046875 64.226562-39.25 64.226562-77.8125zm-491.949219 252.394531v-229.105468l116.492188 110.21875zm203.835938-63.847656-188.679688-178.523438h318.921875c1.878906 14.804688 7.847656 28.34375 16.746094 39.449219zm161.390625-125.101562c11.988281 8.988281 26.59375 14.648437 42.445312 15.644531v173.304687l-116.492187-118.886718zm47.460937-4.234376c-32.652343 0-59.214843-26.5625-59.214843-59.210937 0-32.652344 26.5625-59.214844 59.214843-59.214844 32.648438 0 59.210938 26.5625 59.210938 59.214844 0 32.648437-26.5625 59.210937-59.210938 59.210937zm0 0"/><path d="m104.191406 346.1875c-2.636718 0-5.222656 1.074219-7.085937 2.9375-1.867188 1.867188-2.9375 4.453125-2.9375 7.089844 0 2.644531 1.070312 5.222656 2.9375 7.085937 1.863281 1.875 4.449219 2.9375 7.085937 2.9375 2.648438 0 5.222656-1.0625 7.089844-2.9375 1.875-1.863281 2.9375-4.441406 2.9375-7.085937 0-2.636719-1.0625-5.222656-2.9375-7.089844-1.867188-1.863281-4.441406-2.9375-7.089844-2.9375zm0 0"/></svg>