<svg height="512" viewBox="0 0 128 128" width="512" xmlns="http://www.w3.org/2000/svg" fill="#d0cbbc"><g><path d="m84.734 64.125a1.749 1.749 0 0 0 2.475 0l4.763-4.763a1.75 1.75 0 0 0 -2.472-2.474l-4.766 4.762a1.751 1.751 0 0 0 0 2.475z"/><path d="m121.858 42.2-36.058-36.058a4.75 4.75 0 1 0 -6.718 6.716l2.118 2.124-33.2 33.199a21.555 21.555 0 0 0 -21.4 5.5 1.748 1.748 0 0 0 0 2.473l16.947 16.958-38.405 47.288a1.75 1.75 0 0 0 2.458 2.458l47.285-38.4 16.954 16.954a1.748 1.748 0 0 0 2.473 0 21.556 21.556 0 0 0 5.5-21.4l33.2-33.208 2.124 2.123a4.749 4.749 0 1 0 6.717-6.716zm-103.352 67.3 27.529-33.9 6.365 6.365zm58.087-31.217a1.747 1.747 0 0 0 -.417 1.807 18.1 18.1 0 0 1 -3.153 17.548l-42.661-42.661a18.094 18.094 0 0 1 17.549-3.152 1.758 1.758 0 0 0 1.807-.417l33.96-33.951 26.865 26.865zm42.79-31.836a1.28 1.28 0 0 1 -1.766 0l-36.063-36.064a1.249 1.249 0 1 1 1.767-1.767l36.063 36.062a1.251 1.251 0 0 1 0 1.769z"/></g></svg>