<svg id="Capa_1" enable-background="new 0 0 512 512" height="512" viewBox="0 0 512 512" width="512" xmlns="http://www.w3.org/2000/svg"><path d="m151.193 138.325c-.25 4.899-.296 9.78-.264 14.601-10.287.116-19.933 4.167-27.184 11.432-7.396 7.368-11.47 17.193-11.47 27.664v.34c0 10.471 4.073 20.296 11.45 27.644 7.378 7.392 17.2 11.463 27.657 11.463h4.431c5.152 16.602 14.453 31.786 26.92 43.989l.008 37.687-7.827 12.219c-2.186.09-4.391.19-6.547.299-3.72.026-27.9.534-54.35 8.979-5.261 1.68-8.164 7.307-6.484 12.568 1.681 5.26 7.302 8.166 12.568 6.485 16.826-5.373 32.833-7.152 41.623-7.741l-6.051 9.449c-1.909 2.981-2.101 6.75-.502 9.909l33.97 67.122c1.434 2.833 4.127 4.816 7.258 5.345 3.075.52 6.365-.498 8.609-2.665l9.599-9.265 11.529 19.867-16.679 46.284h-116.315v-20.071c0-5.523-4.478-10-10-10s-10 4.477-10 10v20.071h-51.342c2.723-16.876 9.918-51.061 26.559-79.764 1.793-3.066 3.778-6.162 5.902-9.201 3.163-4.527 2.058-10.761-2.469-13.925s-10.761-2.058-13.926 2.469c-2.431 3.479-4.71 7.033-6.792 10.594-23.242 40.091-29.478 87.911-30.53 97.532-.127.92-.223 1.785-.172 2.766.267 5.288 4.656 9.529 10.008 9.529h491.26c5.353 0 9.723-4.243 9.987-9.532.052-.985-.045-1.851-.174-2.77-1.055-9.639-7.286-57.434-30.549-97.558-9.801-16.758-22.885-31.68-38.888-44.352-37.395-30.603-85.574-31.93-90.556-31.984-4.353-.275-9.035-.442-14.431-.512l-7.774-12.137.009-37.709c12.461-12.202 21.757-27.382 26.902-43.977h4.748c10.458 0 20.281-4.071 27.645-11.45 7.392-7.378 11.463-17.2 11.463-27.658 0-.054-.001-.11-.002-.169.001-.059.002-.117.002-.171 0-10.458-4.071-20.28-11.449-27.644-7.339-7.355-17.101-11.419-27.499-11.46.014-4.839-.043-9.711-.255-14.556 10.802-9.305 49.055-54.913 49.055-54.913 1.799-2.042 2.688-4.728 2.464-7.439-.225-2.712-1.546-5.215-3.656-6.932l-54.451-44.279c-1.148-.934-2.489-1.601-3.926-1.954l-91.914-22.56c-1.566-.384-3.201-.384-4.768 0l-91.913 22.56c-1.437.353-2.777 1.02-3.926 1.954l-54.449 44.282c-2.11 1.717-3.432 4.22-3.656 6.932-.225 2.711.665 5.398 2.464 7.439zm96.358 166.655c5.914.476 11.868.457 17.778-.075 15.576-1.387 30.568-6.211 43.933-14.102l-.005 20.754-53.262 47.093-53.255-47.085-.005-20.753c13.365 7.885 28.349 12.707 43.913 14.093.301.026.602.05.903.075zm88.841 56.4-25.269 49.928-9.068-8.753c-.001-.001-31.323-30.233-31.323-30.233l46.395-41.024zm-141.526-30.082 46.397 41.021-40.396 38.99-25.269-49.93zm185.156-139.5c-.011.269-.012.538-.001.808-.062 5.017-1.882 9.884-5.604 13.273-7.26 6.612-13.502 5.592-13.502 5.592 0-3.129.001-10.3.067-14.264.133-8.092-.268-16.265-.067-24.291 5.108 0 9.903 1.986 13.516 5.606 3.553 3.545 5.534 8.253 5.591 13.276zm-45.813-58.682c-41.194 25.905-100.726 28.596-144.344 7.207-9.673-4.76-18.463-10.754-26.346-17.971h185.148c-2.932 2.579-6.365 5.305-10.301 8.024-1.366.943-2.753 1.854-4.157 2.74zm-119.879-50.625c.309 7.249 2.474 14.025 6.039 19.859h-52.109c11.019-7.32 26.487-15.278 46.07-19.859zm19.954-1.796v-21.658h43.315v21.658c0 11.91-9.664 21.603-21.562 21.655h-.192c-11.897-.052-21.561-9.746-21.561-21.655zm63.269 1.808c19.413 4.576 34.845 12.53 45.876 19.847h-51.915c3.564-5.831 5.728-12.603 6.039-19.847zm-128.892-40.767 87.348-21.439 87.349 21.439 44.634 36.296-17.467 19.815c-11.868-10.48-36.54-28.372-72.924-35.814v-12.996c0-5.523-4.478-10-10-10h-63.315c-5.522 0-10 4.477-10 10v12.992c-36.306 7.408-60.96 25.21-72.886 35.708l-17.37-19.705zm-17.278 169.734c-5.107 0-9.903-1.986-13.522-5.612-3.602-3.588-5.585-8.38-5.585-13.495v-.34c0-5.115 1.983-9.907 5.604-13.515 3.537-3.544 8.495-5.523 13.503-5.59-.063 12.084 0 26.373 0 38.552zm21.861 7.899c-2.226-10.151-2.419-20.763-2.303-31.894.095-8.993.002-32.128-.015-34.724.101.06.206.115.307.175 22.046 13.11 48.15 20.182 77.73 21.02 7.799.228 15.624.024 23.4-.64 29.516-2.487 52.078-11.114 68.713-20.871-.006 3.718.049 7.434 0 11.099-.541 40.263 1.134 79.074-35.125 105.532-31.815 23.215-76.729 21.051-106.208-5.067-13.254-11.759-22.614-27.486-26.499-44.63zm82.755 166.53 26.525 25.606-13.475 23.219h-26.167l-13.453-23.182zm-11.85 68.825h23.634l13.175 36.557h-49.983zm201.143 37.276v-20.071c0-5.523-4.478-10-10-10s-10 4.477-10 10v20.071h-122.817l-16.68-46.283 11.551-19.904 9.634 9.3c.146.141.306.263.46.395 4.771 4.079 12.459 2.757 15.412-3.078l33.968-67.117c1.599-3.159 1.407-6.928-.502-9.909l-6.175-9.641c.108.007.217.013.326.021.202.013.423.02.626.021.449.001 45.317.464 78.314 27.51.045.037.09.073.135.109 14.073 11.132 25.546 24.191 34.079 38.782 16.66 28.736 23.855 62.921 26.577 79.795h-44.908z"/><path d="m244.688 231.978h21.367c5.522 0 10-4.477 10-10s-4.478-10-10-10h-6.71l5.337-13.623c2.015-5.142-.521-10.944-5.663-12.958-5.145-2.015-10.943.522-12.958 5.664l-10.684 27.271c-1.206 3.078-.813 6.553 1.05 9.283s4.956 4.363 8.261 4.363z"/><circle cx="77.051" cy="365.019" r="9.796"/></svg>